<?xml version="1.0" encoding="UTF-8"?>
<svg id="Layer_1" data-name="Layer 1" xmlns="http://www.w3.org/2000/svg" xmlns:xlink="http://www.w3.org/1999/xlink" viewBox="0 0 1320.86 286.48">
  <defs>
    <style>
      .cls-1 {
        clip-path: url(#clippath-11);
      }

      .cls-2 {
        clip-path: url(#clippath-16);
      }

      .cls-3 {
        fill: #f57c00;
      }

      .cls-4 {
        clip-path: url(#clippath-2);
      }

      .cls-5 {
        clip-path: url(#clippath-13);
      }

      .cls-6 {
        clip-path: url(#clippath-15);
      }

      .cls-7 {
        clip-path: url(#clippath-6);
      }

      .cls-8 {
        clip-path: url(#clippath-1);
      }

      .cls-9 {
        clip-path: url(#clippath-4);
      }

      .cls-10 {
        fill: #008b72;
      }

      .cls-11 {
        fill: #42b8de;
      }

      .cls-12 {
        fill: #ffa126;
      }

      .cls-13 {
        clip-path: url(#clippath-12);
      }

      .cls-14 {
        fill: #00bfa0;
      }

      .cls-15 {
        clip-path: url(#clippath-9);
      }

      .cls-16 {
        clip-path: url(#clippath);
      }

      .cls-17 {
        fill: none;
      }

      .cls-18 {
        fill: #626b72;
      }

      .cls-19 {
        clip-path: url(#clippath-3);
      }

      .cls-20 {
        clip-path: url(#clippath-14);
      }

      .cls-21 {
        clip-path: url(#clippath-5);
      }

      .cls-22 {
        fill: #88cfe3;
      }

      .cls-23 {
        fill: #879199;
      }

      .cls-24 {
        clip-path: url(#clippath-10);
      }

      .cls-25 {
        fill: #ff8500;
      }
    </style>
    <clipPath id="clippath">
      <path class="cls-17" d="m8.18,211.68c3.06,9.86,9.31,25.35,22.53,40.13,5.7,6.37,32.7,36.54,72.85,34.57,20.48-1.01,35.43-9.94,41.67-14.2,5.77-3.93,21.57-15.8,30.25-37.97,10.03-25.62,3.96-48.17,1.85-54.95.3,5.79.04,14.11-2.78,23.46-9.12,30.2-36.87,44.06-43.22,47.23-26.52,13.24-59.83,13.28-87.05-1.85-20.59-11.45-31.46-28.11-36.12-36.43Z"/>
    </clipPath>
    <clipPath id="clippath-1">
      <path class="cls-17" d="m79.18,62.89c-8.88,3.44-26.67,11.71-41.91,29.98-5.39,6.45-18.83,23.02-22.23,48.57-1.05,7.91-4.29,35.43,13.45,60.23,9.33,13.05,20.95,20.44,28.67,24.28,15.37,7.65,29,7.98,36.63,8.09,8.21.13,20.11.2,33.2-6.04,6.46-3.08,14.49-6.9,19.28-15.91,1.4-2.64,7.57-15.23,1.03-25.31-4.14-6.38-11.04-8.19-12.76-8.64-10.41-2.73-18.88,2.91-20.58,4.05-7.84,5.23-10.51,12.91-11.25,15.37,1.67-1.98,6.96-7.71,15.09-8.37,2.25-.18,7.8-.63,10.7,2.88,2.92,3.54,1.77,9.4.14,12.76-5.47,11.26-25.25,12.84-36.36,11.8-19.4-1.82-32.23-13.51-35.81-16.88-20.18-18.93-21.73-44.62-22.09-50.49-1.97-32.58,16.15-56.09,23.32-65.31,7.75-9.96,15.79-16.8,21.47-21.06Z"/>
    </clipPath>
    <clipPath id="clippath-2">
      <path class="cls-17" d="m195.15,164.34c-5.81-14.18-14.72-26.15-25.64-35.44-2.1,1.63-4.11,3.1-5.94,4.44-6.05,4.44-11.77,7.72-20.25,12.13,9.23,8.76,16.81,19.56,21.95,32.1,16.95,41.4-25.13,109.51-20.81,107.74,47.4-19.41,70.1-73.57,50.69-120.97Z"/>
    </clipPath>
    <clipPath id="clippath-3">
      <path class="cls-17" d="m128.65,73.92c18.01,0,34.79,5.22,48.93,14.23-7.32,7.04-16.3,13-29.63,19.75-5.94-1.22-12.09-1.86-18.39-1.86-45.77,0-83.66,33.72-90.19,77.67-1.25-6.01-1.9-12.23-1.9-18.61,0-50.36,40.83-91.19,91.19-91.19Z"/>
    </clipPath>
    <clipPath id="clippath-4">
      <path class="cls-17" d="m189.75,97.23c-1.47,5.46-3.76,11.14-7.19,16.8-1.57,2.59-3.27,4.99-5.06,7.22,21.14,13.99,36.39,34.17,42.01,57.38.82-4.72,1.25-9.56,1.25-14.47,0-25.9-11.78-49.44-31.01-66.92Z"/>
    </clipPath>
    <clipPath id="clippath-5">
      <path class="cls-17" d="m128.65,73.92c18.01,0,34.79,5.22,48.93,14.23-7.32,7.04-16.3,13-29.63,19.75-5.94-1.22-12.09-1.86-18.39-1.86-45.77,0-83.66,33.72-90.19,77.67-1.25-6.01-1.9-12.23-1.9-18.61,0-50.36,40.83-91.19,91.19-91.19Z"/>
    </clipPath>
    <clipPath id="clippath-6">
      <path class="cls-17" d="m189.75,97.23c-1.47,5.46-3.76,11.14-7.19,16.8-1.57,2.59-3.27,4.99-5.06,7.22,21.14,13.99,36.39,34.17,42.01,57.38.82-4.72,1.25-9.56,1.25-14.47,0-25.9-11.78-49.44-31.01-66.92Z"/>
    </clipPath>
    <clipPath id="clippath-9">
      <path class="cls-17" d="m90.81,209.31c-8.57-3.13-13.1-9.46-14.92-12.04-1.68-2.39-7.21-10.88-6.28-22.64.84-10.65,6.47-17.6,8.95-20.58,2.67-3.2,5.92-6.09,16.36-12.04,13.71-7.81,20.58-9.94,35.81-17.39,10.37-5.07,15.55-7.6,21.51-11.42,9.41-6.03,20.33-13.01,29.22-25.72,3.91-5.6,10.09-16.11,12.73-31.69.86,1.86,1.98,4.64,2.78,8.13,3.5,15.26-2.47,28.3-5.45,34.78-7.18,15.6-18.07,24.49-22.84,28.3-7.5,5.99-15.94,9.89-32.82,17.7-13.84,6.4-20.74,8.62-31.49,16.15-9.89,6.94-13.34,11.58-15.33,16.36-1.13,2.7-4.32,10.71-.93,19.86,3.32,8.96,10.74,13.02,12.66,13.99-2.4,0-5.96-.3-9.95-1.75Z"/>
    </clipPath>
    <clipPath id="clippath-10">
      <path class="cls-17" d="m182.35,14.78c1.86,11.69,3.73,23.39,5.59,35.08,3.07,1.37,6.14,2.74,9.2,4.11,1.46-3.08,2.91-6.15,4.37-9.23-6.39-9.99-12.77-19.97-19.16-29.96Z"/>
    </clipPath>
    <clipPath id="clippath-11">
      <path class="cls-17" d="m211.93,93.16c-1.86-11.69-3.73-23.39-5.59-35.08-3.07-1.37-6.14-2.74-9.2-4.11-1.46,3.08-2.91,6.15-4.37,9.23,6.39,9.99,12.77,19.97,19.16,29.96Z"/>
    </clipPath>
    <clipPath id="clippath-12">
      <path class="cls-17" d="m157.97,68.75c11.69-1.86,23.39-3.73,35.08-5.59,1.37-3.07,2.74-6.14,4.11-9.2-3.08-1.46-6.15-2.91-9.23-4.37-9.99,6.39-19.97,12.77-29.96,19.16Z"/>
    </clipPath>
    <clipPath id="clippath-13">
      <path class="cls-17" d="m236.34,39.17c-11.69,1.86-23.39,3.73-35.08,5.59-1.37,3.07-2.74,6.14-4.11,9.2,3.08,1.46,6.15,2.91,9.23,4.37,9.99-6.39,19.97-12.77,29.96-19.16Z"/>
    </clipPath>
    <clipPath id="clippath-14">
      <path class="cls-17" d="m222.28,0c-10.27,13.75-20.55,27.5-30.82,41.25,1.68,4.57,3.35,9.14,5.03,13.72,4.67-1.59,9.34-3.19,14.01-4.78,3.93-16.73,7.86-33.46,11.78-50.19Z"/>
    </clipPath>
    <clipPath id="clippath-15">
      <path class="cls-17" d="m141.53,29.18c13.75,10.27,27.5,20.55,41.25,30.82,4.57-1.68,9.14-3.35,13.72-5.03-1.59-4.67-3.19-9.34-4.78-14.01-16.73-3.93-33.46-7.86-50.19-11.78Z"/>
    </clipPath>
    <clipPath id="clippath-16">
      <path class="cls-17" d="m251.47,80.77c-13.75-10.27-27.5-20.55-41.25-30.82-4.57,1.68-9.14,3.35-13.72,5.03,1.59,4.67,3.19,9.34,4.78,14.01,16.73,3.93,33.46,7.86,50.19,11.78Z"/>
    </clipPath>
  </defs>
  <g>
    <path class="cls-18" d="m339.82,134.46l6.35,19.86h23.83l-37.05-99.71h-20.82l-36.91,99.71h23.83l6.33-19.86h34.43Zm-17.24-53.91l11.72,36.66h-23.41l11.69-36.66Z"/>
    <path class="cls-18" d="m451.4,139.01c3.36-5.23,5.22-11.27,5.58-18.11h-22.19c-.23,3.88-1.05,7.1-2.47,9.66-1.42,2.56-3.45,4.46-6.1,5.72-2.65,1.26-5.96,1.88-9.93,1.88-3.47,0-6.41-.62-8.83-1.85-2.42-1.23-4.39-3.1-5.92-5.62-1.53-2.51-2.64-5.68-3.32-9.52-.68-3.84-1.03-8.38-1.03-13.63v-6.23c0-5.3.39-9.87,1.16-13.73.78-3.86,1.95-7.04,3.53-9.55,1.58-2.51,3.56-4.36,5.96-5.55,2.4-1.19,5.19-1.78,8.39-1.78,4.38,0,7.9.68,10.55,2.05,2.65,1.37,4.61,3.39,5.89,6.06,1.28,2.67,2.01,5.95,2.19,9.83h22.26c-.64-6.85-2.57-12.94-5.79-18.29-3.22-5.34-7.75-9.54-13.59-12.6-5.84-3.06-13.01-4.59-21.5-4.59-6.3,0-12.01,1.12-17.12,3.36-5.11,2.24-9.5,5.46-13.15,9.66-3.65,4.2-6.46,9.27-8.42,15.2-1.96,5.94-2.94,12.63-2.94,20.07v6.1c0,7.44.95,14.12,2.84,20.03,1.89,5.91,4.63,10.96,8.22,15.14,3.58,4.18,7.96,7.39,13.12,9.62,5.16,2.24,11,3.36,17.53,3.36,8.17,0,15.23-1.47,21.16-4.42,5.94-2.94,10.58-7.03,13.94-12.26Z"/>
    <path class="cls-18" d="m491.39,134.46h34.43l6.35,19.86h23.83l-37.05-99.71h-20.82l-36.91,99.71h23.83l6.33-19.86Zm17.19-53.91l11.72,36.66h-23.41l11.69-36.66Z"/>
    <path class="cls-18" d="m641.55,102.27c0-7.12-1.12-13.58-3.36-19.38-2.24-5.8-5.4-10.82-9.49-15.07-4.09-4.25-8.93-7.51-14.52-9.79-5.59-2.28-11.77-3.42-18.53-3.42h-31.43v99.71h31.57c6.71,0,12.85-1.14,18.42-3.42,5.57-2.28,10.4-5.54,14.48-9.76,4.09-4.22,7.25-9.25,9.49-15.07,2.24-5.82,3.36-12.27,3.36-19.35v-4.45Zm-22.67,4.45c0,6.53-.89,12.06-2.67,16.61-1.78,4.54-4.38,7.97-7.81,10.27-3.42,2.31-7.62,3.46-12.6,3.46h-9.25v-65.13h9.11c3.74,0,7.07.64,9.96,1.92,2.9,1.28,5.33,3.2,7.29,5.75,1.96,2.56,3.45,5.72,4.45,9.49,1,3.77,1.51,8.12,1.51,13.05v4.59Z"/>
    <polygon class="cls-18" points="669.9 54.61 655.18 54.61 655.18 154.32 669.9 154.32 677.5 154.32 722.98 154.32 722.98 137.06 677.5 137.06 677.5 111.45 716.13 111.45 716.13 94.74 677.5 94.74 677.5 71.93 723.04 71.93 723.04 54.61 677.5 54.61 669.9 54.61"/>
    <polygon class="cls-18" points="817.76 128.5 817.76 154.32 840.15 154.32 840.15 54.61 829.4 54.61 821.25 54.61 810.91 54.61 787.01 125.9 763.04 54.61 752.7 54.61 744.55 54.61 733.87 54.61 733.87 154.32 756.19 154.32 756.19 128.5 753.97 81.5 779.48 154.32 794.47 154.32 819.98 81.5 817.76 128.5"/>
    <rect class="cls-18" x="858.23" y="54.61" width="22.26" height="99.71"/>
    <path class="cls-18" d="m921.69,134.46h34.43l6.35,19.86h23.83l-37.05-99.71h-20.82l-36.91,99.71h23.83l6.33-19.86Zm17.19-53.91l11.72,36.66h-23.41l11.69-36.66Z"/>
    <polygon class="cls-18" points="1088.48 54.61 1067.25 128.84 1046.09 54.61 1021.3 54.61 1055.27 154.32 1062.94 154.32 1071.7 154.32 1079.17 154.32 1113.34 54.61 1088.48 54.61"/>
    <rect class="cls-18" x="1123.14" y="54.61" width="22.26" height="99.71"/>
    <path class="cls-18" d="m1234.84,141.21c2.78-4.36,4.18-9.78,4.18-16.27,0-3.93-.85-7.65-2.53-11.16-1.69-3.52-4.44-6.36-8.25-8.53-1.58-.9-3.38-1.58-5.39-2.09.95-.37,1.85-.78,2.69-1.23,3.97-2.19,6.86-5.04,8.66-8.56,1.8-3.52,2.71-7.3,2.71-11.37,0-4.66-.87-8.7-2.6-12.12-1.74-3.42-4.26-6.28-7.57-8.56-3.31-2.28-7.32-3.97-12.02-5.07-4.7-1.1-10.04-1.64-16.03-1.64h-35.34v99.71h38.97c7.99,0,14.71-1.1,20.17-3.29,5.45-2.19,9.58-5.47,12.36-9.83Zm-36.16-69.27c3.7,0,6.72.42,9.07,1.27,2.35.85,4.07,2.18,5.17,4.01,1.1,1.83,1.64,4.22,1.64,7.19,0,2.6-.55,4.78-1.64,6.54-1.1,1.76-2.82,3.09-5.17,4.01-2.35.91-5.4,1.37-9.14,1.37h-12.94v-24.38h13.01Zm16.71,59.03c-1,1.87-2.58,3.36-4.73,4.45-2.15,1.1-4.93,1.64-8.36,1.64h-16.64v-25.82h17.53c3.29,0,5.92.55,7.91,1.64,1.99,1.1,3.45,2.65,4.38,4.66.93,2.01,1.4,4.38,1.4,7.12,0,2.33-.5,4.43-1.51,6.3Z"/>
    <polygon class="cls-18" points="281.98 203.83 277.93 203.83 277.93 232.91 283.42 232.91 283.42 220.72 295.14 220.72 295.14 216.39 283.42 216.39 283.42 208.16 296.68 208.16 296.68 203.83 283.42 203.83 281.98 203.83"/>
    <path class="cls-18" d="m320.56,207.23c-1.09-1.23-2.37-2.17-3.86-2.83-1.49-.65-3.15-.98-4.97-.98s-3.45.33-4.94.98c-1.5.65-2.79,1.59-3.86,2.83-1.08,1.23-1.92,2.72-2.52,4.46-.6,1.75-.9,3.72-.9,5.93v1.5c0,2.2.3,4.17.9,5.92.6,1.75,1.45,3.24,2.54,4.46,1.09,1.23,2.39,2.16,3.88,2.82,1.5.65,3.15.98,4.94.98s3.48-.33,4.97-.98c1.49-.65,2.78-1.59,3.86-2.82,1.08-1.22,1.91-2.71,2.5-4.46.59-1.75.88-3.73.88-5.92v-1.5c0-2.21-.3-4.19-.89-5.93-.59-1.74-1.43-3.23-2.52-4.46Zm-2.15,11.89c0,1.57-.15,2.96-.44,4.17-.29,1.21-.72,2.23-1.29,3.07-.57.83-1.26,1.46-2.09,1.89-.83.43-1.77.64-2.84.64s-2.01-.21-2.84-.64c-.83-.43-1.53-1.05-2.11-1.89-.58-.83-1.02-1.85-1.32-3.07-.3-1.21-.45-2.6-.45-4.17v-1.54c0-1.59.15-2.98.45-4.19.3-1.2.74-2.22,1.31-3.05.57-.83,1.27-1.45,2.09-1.87.82-.42,1.76-.63,2.83-.63s2,.21,2.84.63c.84.42,1.54,1.04,2.12,1.87.57.83,1,1.84,1.3,3.05.29,1.21.44,2.6.44,4.19v1.54Z"/>
    <path class="cls-18" d="m346.77,219.29c.97-.75,1.71-1.67,2.25-2.78.53-1.1.8-2.41.8-3.92,0-1.9-.43-3.51-1.28-4.81-.85-1.3-2.07-2.29-3.65-2.96-1.59-.67-3.48-1-5.69-1h-10.57v29.08h5.49v-10.99h5.25l5.68,10.99h5.89v-.28l-6.42-12.03c.83-.36,1.59-.8,2.25-1.31Zm-12.65-11.13h5.07c1.16,0,2.12.19,2.88.58.76.39,1.33.94,1.7,1.65.37.71.56,1.55.56,2.53,0,.91-.19,1.71-.57,2.42-.38.71-.94,1.26-1.69,1.66-.75.4-1.68.6-2.82.6h-5.13v-9.43Z"/>
    <polygon class="cls-18" points="380.14 203.83 377.64 203.83 369.71 225.72 361.76 203.83 359.26 203.83 357.01 203.83 354.61 203.83 354.61 232.91 360.1 232.91 360.1 223.94 359.55 210.68 367.79 232.91 371.61 232.91 379.86 210.71 379.32 223.94 379.32 232.91 384.81 232.91 384.81 203.83 382.41 203.83 380.14 203.83"/>
    <path class="cls-18" d="m402.81,203.83h-3.72l-10.87,29.08h5.81l2.17-6.47h10.86l2.19,6.47h5.83l-10.93-29.08h-1.36Zm-5.14,18.28l3.96-11.79,3.98,11.79h-7.94Z"/>
    <polygon class="cls-18" points="435.97 224.02 423.56 203.83 418.07 203.83 418.07 232.91 423.56 232.91 423.56 212.73 435.93 232.91 441.44 232.91 441.44 203.83 435.97 203.83 435.97 224.02"/>
    <path class="cls-18" d="m465.32,207.61c-1.18-1.22-2.57-2.15-4.17-2.81-1.61-.65-3.38-.98-5.32-.98h-8.81v29.08h8.69c1.98,0,3.79-.33,5.41-.98,1.62-.65,3.03-1.58,4.21-2.8,1.18-1.21,2.08-2.67,2.72-4.36.63-1.7.95-3.59.95-5.66v-1.46c0-2.09-.32-3.98-.95-5.67-.63-1.69-1.54-3.15-2.72-4.36Zm-1.89,11.5c0,1.98-.29,3.68-.88,5.1-.59,1.42-1.45,2.5-2.6,3.26-1.14.75-2.56,1.13-4.25,1.13h-3.2v-20.43h3.32c1.22,0,2.31.21,3.26.62.95.41,1.74,1.02,2.39,1.82.64.8,1.13,1.79,1.47,2.96.33,1.17.5,2.52.5,4.06v1.5Z"/>
    <path class="cls-18" d="m493.8,207.23c-1.09-1.23-2.37-2.17-3.86-2.83-1.49-.65-3.15-.98-4.97-.98s-3.44.33-4.94.98c-1.5.65-2.79,1.59-3.86,2.83-1.08,1.23-1.92,2.72-2.52,4.46-.6,1.75-.9,3.72-.9,5.93v1.5c0,2.2.3,4.17.9,5.92.6,1.75,1.44,3.24,2.54,4.46,1.09,1.23,2.39,2.16,3.89,2.82,1.5.65,3.15.98,4.94.98s3.48-.33,4.97-.98c1.49-.65,2.78-1.59,3.85-2.82,1.08-1.22,1.91-2.71,2.5-4.46.59-1.75.88-3.73.88-5.92v-1.5c0-2.21-.3-4.19-.89-5.93-.59-1.74-1.43-3.23-2.52-4.46Zm-2.15,11.89c0,1.57-.15,2.96-.44,4.17-.29,1.21-.72,2.23-1.29,3.07-.57.83-1.26,1.46-2.09,1.89-.83.43-1.77.64-2.84.64s-2.01-.21-2.84-.64c-.83-.43-1.53-1.05-2.11-1.89-.58-.83-1.02-1.85-1.32-3.07-.3-1.21-.45-2.6-.45-4.17v-1.54c0-1.59.15-2.98.45-4.19.3-1.2.74-2.22,1.31-3.05.57-.83,1.27-1.45,2.09-1.87.82-.42,1.76-.63,2.83-.63s2,.21,2.84.63c.84.42,1.54,1.04,2.12,1.87.57.83,1.01,1.84,1.3,3.05.29,1.21.44,2.6.44,4.19v1.54Z"/>
    <path class="cls-18" d="m528.21,223.14c0,1.36-.22,2.47-.66,3.33-.44.86-1.07,1.5-1.89,1.91-.82.41-1.8.62-2.95.62s-2.11-.21-2.94-.62c-.83-.41-1.47-1.05-1.92-1.91-.45-.86-.68-1.97-.68-3.33v-19.32h-5.49v19.32c0,2.22.47,4.09,1.42,5.6.95,1.51,2.25,2.65,3.91,3.42,1.66.76,3.56,1.15,5.69,1.15s3.98-.38,5.63-1.15c1.65-.77,2.96-1.9,3.92-3.42.96-1.51,1.44-3.38,1.44-5.6v-19.32h-5.49v19.32Z"/>
    <polygon class="cls-18" points="556.8 224.02 544.39 203.83 538.9 203.83 538.9 232.91 544.39 232.91 544.39 212.73 556.76 232.91 562.27 232.91 562.27 203.83 556.8 203.83 556.8 224.02"/>
    <polygon class="cls-18" points="603.54 203.83 601.04 203.83 593.11 225.72 585.16 203.83 582.66 203.83 580.4 203.83 578.01 203.83 578.01 232.91 583.5 232.91 583.5 223.94 582.95 210.69 591.19 232.91 595.01 232.91 603.26 210.71 602.72 223.94 602.72 232.91 608.21 232.91 608.21 203.83 605.81 203.83 603.54 203.83"/>
    <path class="cls-18" d="m629.99,223.14c0,1.36-.22,2.47-.66,3.33-.44.86-1.07,1.5-1.89,1.91-.82.41-1.8.62-2.95.62s-2.11-.21-2.94-.62c-.83-.41-1.46-1.05-1.92-1.91-.45-.86-.68-1.97-.68-3.33v-19.32h-5.49v19.32c0,2.22.47,4.09,1.42,5.6.95,1.51,2.25,2.65,3.92,3.42,1.66.76,3.56,1.15,5.69,1.15s3.98-.38,5.63-1.15c1.65-.77,2.96-1.9,3.92-3.42.96-1.51,1.44-3.38,1.44-5.6v-19.32h-5.49v19.32Z"/>
    <polygon class="cls-18" points="658.57 224.02 646.16 203.83 640.67 203.83 640.67 232.91 646.16 232.91 646.16 212.73 658.53 232.91 664.04 232.91 664.04 203.83 658.57 203.83 658.57 224.02"/>
    <path class="cls-18" d="m687.92,207.61c-1.18-1.22-2.57-2.15-4.17-2.81-1.6-.65-3.38-.98-5.32-.98h-8.81v29.08h8.69c1.98,0,3.79-.33,5.41-.98,1.62-.65,3.03-1.58,4.2-2.8,1.18-1.21,2.08-2.67,2.72-4.36.63-1.7.95-3.59.95-5.66v-1.46c0-2.09-.32-3.98-.95-5.67-.63-1.69-1.54-3.15-2.72-4.36Zm-1.89,11.5c0,1.98-.29,3.68-.88,5.1-.59,1.42-1.45,2.5-2.6,3.26-1.14.75-2.56,1.13-4.25,1.13h-3.2v-20.43h3.32c1.22,0,2.31.21,3.26.62.95.41,1.74,1.02,2.39,1.82.64.8,1.13,1.79,1.47,2.96.33,1.17.5,2.52.5,4.06v1.5Z"/>
    <path class="cls-18" d="m716.41,207.23c-1.09-1.23-2.37-2.17-3.86-2.83-1.49-.65-3.15-.98-4.97-.98s-3.45.33-4.94.98c-1.5.65-2.79,1.59-3.86,2.83-1.08,1.23-1.92,2.72-2.52,4.46-.6,1.75-.9,3.72-.9,5.93v1.5c0,2.2.3,4.17.9,5.92.6,1.75,1.45,3.24,2.54,4.46,1.09,1.23,2.39,2.16,3.88,2.82,1.5.65,3.15.98,4.94.98s3.48-.33,4.97-.98c1.49-.65,2.78-1.59,3.86-2.82,1.08-1.22,1.91-2.71,2.5-4.46.59-1.75.88-3.73.88-5.92v-1.5c0-2.21-.3-4.19-.89-5.93-.59-1.74-1.43-3.23-2.52-4.46Zm-2.15,11.89c0,1.57-.15,2.96-.44,4.17-.29,1.21-.72,2.23-1.29,3.07-.57.83-1.26,1.46-2.09,1.89-.83.43-1.77.64-2.84.64s-2.01-.21-2.84-.64c-.83-.43-1.53-1.05-2.11-1.89-.58-.83-1.02-1.85-1.32-3.07-.3-1.21-.45-2.6-.45-4.17v-1.54c0-1.59.15-2.98.45-4.19.3-1.2.74-2.22,1.31-3.05.57-.83,1.27-1.45,2.09-1.87.82-.42,1.76-.63,2.83-.63s2,.21,2.84.63c.84.42,1.55,1.04,2.12,1.87.57.83,1,1.84,1.3,3.05.29,1.21.44,2.6.44,4.19v1.54Z"/>
    <path class="cls-18" d="m752.94,207.61c-1.18-1.22-2.57-2.15-4.17-2.81-1.6-.65-3.38-.98-5.32-.98h-8.81v29.08h8.69c1.98,0,3.79-.33,5.41-.98,1.62-.65,3.03-1.58,4.2-2.8,1.18-1.21,2.08-2.67,2.72-4.36.63-1.7.95-3.59.95-5.66v-1.46c0-2.09-.32-3.98-.95-5.67-.63-1.69-1.54-3.15-2.72-4.36Zm-1.89,11.5c0,1.98-.29,3.68-.88,5.1-.59,1.42-1.45,2.5-2.6,3.26-1.14.75-2.56,1.13-4.25,1.13h-3.2v-20.43h3.32c1.22,0,2.31.21,3.26.62.95.41,1.74,1.02,2.39,1.82.64.8,1.13,1.79,1.47,2.96.33,1.17.5,2.52.5,4.06v1.5Z"/>
    <polygon class="cls-18" points="766.77 220.04 778.54 220.04 778.54 215.83 766.77 215.83 766.77 208.16 780.5 208.16 780.5 203.83 766.77 203.83 765.1 203.83 761.28 203.83 761.28 232.91 765.1 232.91 766.77 232.91 780.56 232.91 780.56 228.59 766.77 228.59 766.77 220.04"/>
    <rect class="cls-18" x="794.88" y="203.83" width="5.49" height="29.08"/>
    <polygon class="cls-18" points="824.18 224.02 811.78 203.83 806.29 203.83 806.29 232.91 811.78 232.91 811.78 212.73 824.14 232.91 829.66 232.91 829.66 203.83 824.18 203.83 824.18 224.02"/>
    <polygon class="cls-18" points="853.13 224.02 840.72 203.83 835.23 203.83 835.23 232.91 840.72 232.91 840.72 212.73 853.09 232.91 858.6 232.91 858.6 203.83 853.13 203.83 853.13 224.02"/>
    <path class="cls-18" d="m884.32,207.23c-1.09-1.23-2.37-2.17-3.86-2.83-1.49-.65-3.15-.98-4.97-.98s-3.45.33-4.94.98c-1.5.65-2.79,1.59-3.86,2.83-1.08,1.23-1.92,2.72-2.52,4.46-.6,1.75-.9,3.72-.9,5.93v1.5c0,2.2.3,4.17.9,5.92.6,1.75,1.45,3.24,2.54,4.46,1.09,1.23,2.39,2.16,3.88,2.82,1.5.65,3.15.98,4.94.98s3.48-.33,4.97-.98c1.49-.65,2.78-1.59,3.86-2.82,1.08-1.22,1.91-2.71,2.5-4.46.59-1.75.88-3.73.88-5.92v-1.5c0-2.21-.3-4.19-.89-5.93-.59-1.74-1.43-3.23-2.52-4.46Zm-2.15,11.89c0,1.57-.15,2.96-.44,4.17-.29,1.21-.72,2.23-1.29,3.07-.57.83-1.26,1.46-2.09,1.89-.83.43-1.77.64-2.84.64s-2.01-.21-2.84-.64c-.83-.43-1.53-1.05-2.11-1.89-.58-.83-1.02-1.85-1.32-3.07-.3-1.21-.45-2.6-.45-4.17v-1.54c0-1.59.15-2.98.45-4.19.3-1.2.74-2.22,1.31-3.05.57-.83,1.27-1.45,2.09-1.87.82-.42,1.76-.63,2.83-.63s2,.21,2.84.63c.84.42,1.55,1.04,2.12,1.87.57.83,1,1.84,1.3,3.05.29,1.21.44,2.6.44,4.19v1.54Z"/>
    <polygon class="cls-18" points="909.42 203.83 902.43 226.37 895.47 203.83 889.4 203.83 899.63 232.91 901.19 232.91 903.73 232.91 905.24 232.91 915.51 203.83 909.42 203.83"/>
    <path class="cls-18" d="m929.05,203.83h-3.72l-10.87,29.08h5.81l2.17-6.47h10.86l2.19,6.47h5.83l-10.93-29.08h-1.36Zm-5.14,18.28l3.96-11.79,3.98,11.79h-7.94Z"/>
    <path class="cls-18" d="m949.15,213.14c.27-1.18.67-2.16,1.2-2.96.53-.79,1.2-1.39,2.01-1.79.8-.4,1.74-.6,2.81-.6,1.37,0,2.47.22,3.31.67.83.45,1.46,1.1,1.88,1.95.42.85.68,1.89.79,3.12h5.49c-.19-1.97-.73-3.72-1.64-5.23-.91-1.52-2.18-2.71-3.82-3.59-1.64-.87-3.64-1.31-6.01-1.31-1.83,0-3.47.33-4.94.98-1.47.65-2.73,1.58-3.77,2.79-1.05,1.21-1.85,2.66-2.41,4.36-.56,1.71-.84,3.61-.84,5.73v2.22c0,2.12.27,4.02.82,5.72.55,1.7,1.34,3.15,2.37,4.35,1.03,1.21,2.28,2.13,3.74,2.78,1.46.65,3.1.97,4.92.97,2.37,0,4.39-.43,6.05-1.28,1.66-.85,2.96-2.03,3.9-3.53.93-1.5,1.47-3.22,1.62-5.16h-5.49c-.12,1.22-.4,2.25-.85,3.08-.45.83-1.09,1.45-1.94,1.88-.85.43-1.94.64-3.29.64-1.1,0-2.06-.21-2.86-.64-.8-.43-1.45-1.05-1.96-1.86-.51-.81-.88-1.8-1.12-2.98-.24-1.17-.36-2.5-.36-3.97v-2.26c0-1.54.13-2.91.4-4.08Z"/>
    <rect class="cls-18" x="971.2" y="203.83" width="5.49" height="29.08"/>
    <path class="cls-18" d="m1002.75,207.23c-1.09-1.23-2.37-2.17-3.86-2.83-1.49-.65-3.15-.98-4.97-.98s-3.45.33-4.94.98c-1.5.65-2.79,1.59-3.86,2.83-1.08,1.23-1.92,2.72-2.52,4.46-.6,1.75-.9,3.72-.9,5.93v1.5c0,2.2.3,4.17.9,5.92.6,1.75,1.44,3.24,2.54,4.46,1.09,1.23,2.39,2.16,3.88,2.82,1.5.65,3.15.98,4.94.98s3.48-.33,4.97-.98c1.49-.65,2.78-1.59,3.86-2.82,1.08-1.22,1.91-2.71,2.5-4.46.59-1.75.88-3.73.88-5.92v-1.5c0-2.21-.3-4.19-.89-5.93-.59-1.74-1.43-3.23-2.52-4.46Zm-2.15,11.89c0,1.57-.15,2.96-.44,4.17-.29,1.21-.72,2.23-1.29,3.07-.57.83-1.26,1.46-2.09,1.89-.83.43-1.77.64-2.84.64s-2.01-.21-2.84-.64c-.83-.43-1.53-1.05-2.11-1.89-.58-.83-1.02-1.85-1.32-3.07-.3-1.21-.45-2.6-.45-4.17v-1.54c0-1.59.15-2.98.45-4.19.3-1.2.74-2.22,1.31-3.05.57-.83,1.27-1.45,2.09-1.87.82-.42,1.76-.63,2.83-.63s2,.21,2.84.63c.84.42,1.55,1.04,2.12,1.87.57.83,1,1.84,1.3,3.05.29,1.21.44,2.6.44,4.19v1.54Z"/>
    <polygon class="cls-18" points="1001.1 196.02 995.27 196.02 991.36 202.09 995.65 202.09 1001.1 196.02"/>
    <polygon class="cls-18" points="1028.71 224.02 1016.3 203.83 1010.81 203.83 1010.81 232.91 1016.3 232.91 1016.3 212.73 1028.67 232.91 1034.18 232.91 1034.18 203.83 1028.71 203.83 1028.71 224.02"/>
    <polygon class="cls-18" points="1059.71 217.39 1053.32 203.83 1047.25 203.83 1056.93 222.26 1056.93 232.91 1062.51 232.91 1062.51 222.26 1072.18 203.83 1066.14 203.83 1059.71 217.39"/>
    <polygon class="cls-18" points="1090.73 220.04 1102.5 220.04 1102.5 215.83 1090.73 215.83 1090.73 208.16 1104.46 208.16 1104.46 203.83 1090.73 203.83 1089.05 203.83 1085.24 203.83 1085.24 232.91 1089.05 232.91 1090.73 232.91 1104.51 232.91 1104.51 228.59 1090.73 228.59 1090.73 220.04"/>
    <polygon class="cls-18" points="1130.64 203.83 1124.33 203.83 1118.5 214.19 1112.68 203.83 1106.35 203.83 1114.98 218.25 1106.13 232.91 1112.52 232.91 1118.5 222.34 1124.49 232.91 1130.86 232.91 1122.01 218.25 1130.64 203.83"/>
    <path class="cls-18" d="m1138.77,213.14c.27-1.18.67-2.16,1.2-2.96.53-.79,1.2-1.39,2.01-1.79.8-.4,1.74-.6,2.81-.6,1.37,0,2.47.22,3.31.67.83.45,1.46,1.1,1.88,1.95.42.85.68,1.89.79,3.12h5.49c-.19-1.97-.73-3.72-1.64-5.23-.91-1.52-2.18-2.71-3.82-3.59-1.64-.87-3.64-1.31-6.01-1.31-1.83,0-3.47.33-4.94.98-1.47.65-2.73,1.58-3.77,2.79-1.05,1.21-1.85,2.66-2.41,4.36-.56,1.71-.84,3.61-.84,5.73v2.22c0,2.12.27,4.02.82,5.72.55,1.7,1.34,3.15,2.37,4.35,1.03,1.21,2.28,2.13,3.74,2.78,1.46.65,3.1.97,4.92.97,2.37,0,4.39-.43,6.05-1.28,1.66-.85,2.96-2.03,3.9-3.53.93-1.5,1.47-3.22,1.62-5.16h-5.49c-.12,1.22-.4,2.25-.85,3.08-.45.83-1.09,1.45-1.94,1.88-.85.43-1.94.64-3.29.64-1.1,0-2.06-.21-2.86-.64-.8-.43-1.45-1.05-1.96-1.86-.51-.81-.88-1.8-1.12-2.98-.24-1.17-.36-2.5-.36-3.97v-2.26c0-1.54.13-2.91.4-4.08Z"/>
    <polygon class="cls-18" points="1165.96 220.04 1177.72 220.04 1177.72 215.83 1165.96 215.83 1165.96 208.16 1179.68 208.16 1179.68 203.83 1165.96 203.83 1164.28 203.83 1160.46 203.83 1160.46 232.91 1164.28 232.91 1165.96 232.91 1179.74 232.91 1179.74 228.59 1165.96 228.59 1165.96 220.04"/>
    <polygon class="cls-18" points="1189.03 203.83 1183.53 203.83 1183.53 232.91 1187.37 232.91 1189.03 232.91 1201.99 232.91 1201.99 228.59 1189.03 228.59 1189.03 203.83"/>
    <polygon class="cls-18" points="1211.14 220.04 1222.9 220.04 1222.9 215.83 1211.14 215.83 1211.14 208.16 1224.86 208.16 1224.86 203.83 1211.14 203.83 1209.46 203.83 1205.65 203.83 1205.65 232.91 1209.46 232.91 1211.14 232.91 1224.92 232.91 1224.92 228.59 1211.14 228.59 1211.14 220.04"/>
    <polygon class="cls-18" points="1246.61 224.02 1234.21 203.83 1228.72 203.83 1228.72 232.91 1234.21 232.91 1234.21 212.73 1246.58 232.91 1252.09 232.91 1252.09 203.83 1246.61 203.83 1246.61 224.02"/>
    <path class="cls-18" d="m1262.71,213.14c.27-1.18.67-2.16,1.2-2.96.53-.79,1.2-1.39,2.01-1.79.8-.4,1.74-.6,2.81-.6,1.37,0,2.47.22,3.31.67.83.45,1.46,1.1,1.88,1.95.42.85.68,1.89.79,3.12h5.49c-.19-1.97-.73-3.72-1.64-5.23-.91-1.52-2.18-2.71-3.82-3.59-1.64-.87-3.64-1.31-6.01-1.31-1.83,0-3.47.33-4.94.98-1.47.65-2.73,1.58-3.77,2.79-1.05,1.21-1.85,2.66-2.41,4.36-.56,1.71-.84,3.61-.84,5.73v2.22c0,2.12.27,4.02.82,5.72.55,1.7,1.34,3.15,2.37,4.35,1.03,1.21,2.28,2.13,3.74,2.78,1.46.65,3.1.97,4.92.97,2.37,0,4.39-.43,6.05-1.28,1.66-.85,2.96-2.03,3.9-3.53.93-1.5,1.47-3.22,1.62-5.16h-5.49c-.12,1.22-.4,2.25-.85,3.08-.45.83-1.09,1.45-1.94,1.88-.85.43-1.94.64-3.29.64-1.1,0-2.06-.21-2.86-.64-.8-.43-1.45-1.05-1.96-1.86-.51-.81-.88-1.8-1.12-2.98-.24-1.17-.36-2.5-.36-3.97v-2.26c0-1.54.13-2.91.4-4.08Z"/>
    <rect class="cls-18" x="1284.77" y="203.83" width="5.49" height="29.08"/>
    <path class="cls-18" d="m1315.03,232.91h5.83l-10.93-29.08h-5.07l-10.87,29.08h5.81l2.18-6.47h10.86l2.19,6.47Zm-11.59-10.81l3.96-11.79,3.98,11.79h-7.94Z"/>
  </g>
  <g>
    <g>
      <path class="cls-11" d="m219.75,30.89c6.59,6.36,10.55,15.39,10.2,25.26-.03.89-.11,1.77-.21,2.64l10.4,7.77c.85-3.2,1.36-6.54,1.48-9.99.56-15.72-6.99-29.84-18.89-38.35l-2.98,12.67Z"/>
      <path class="cls-11" d="m172.43,31.71c6.36-6.58,15.39-10.54,25.26-10.19.88.03,1.75.11,2.62.21l7.77-10.4c-3.19-.84-6.53-1.35-9.97-1.47-15.71-.56-29.83,6.99-38.35,18.88l12.67,2.98Z"/>
      <g>
        <path class="cls-11" d="m170.21,75.67c-4.74-6.01-7.45-13.65-7.16-21.89.03-.89.11-1.76.21-2.63l-10.4-7.77c-.85,3.2-1.35,6.54-1.47,9.98-.38,10.72,3.01,20.69,8.98,28.65,4-2.35,7.23-4.46,9.85-6.35Z"/>
        <path class="cls-11" d="m220.56,78.24c-5.73,5.92-13.61,9.71-22.33,10.15-1.17,3.93-2.64,7.88-4.42,11.65.36.02.73.04,1.09.05,15.71.56,29.82-6.98,38.34-18.87l-12.68-2.98Z"/>
      </g>
    </g>
    <g>
      <path class="cls-18" d="m8.18,211.68c3.06,9.86,9.31,25.35,22.53,40.13,5.7,6.37,32.7,36.54,72.85,34.57,20.48-1.01,35.43-9.94,41.67-14.2,5.77-3.93,21.57-15.8,30.25-37.97,10.03-25.62,3.96-48.17,1.85-54.95.3,5.79.04,14.11-2.78,23.46-9.12,30.2-36.87,44.06-43.22,47.23-26.52,13.24-59.83,13.28-87.05-1.85-20.59-11.45-31.46-28.11-36.12-36.43Z"/>
      <g class="cls-16">
        <path class="cls-23" d="m4.44,199.98c3.06,9.86,9.31,25.35,22.53,40.13,5.7,6.37,32.7,36.54,72.85,34.57,20.48-1.01,35.43-9.94,41.67-14.2,5.77-3.93,21.57-15.8,30.25-37.97,10.03-25.62,3.96-48.17,1.85-54.95.3,5.79.04,14.11-2.78,23.46-9.12,30.2-36.87,44.06-43.22,47.23-26.52,13.24-59.83,13.28-87.05-1.85-20.59-11.45-31.46-28.11-36.12-36.43Z"/>
      </g>
    </g>
    <g>
      <path class="cls-11" d="m72.7,65.67c-.44-.63-23.15,8.8-41.67,29.33-8.81,9.77-36.84,40.81-29.94,82.42,4.73,28.58,23.44,46.42,31.49,53.09,7.68,6.37,27.32,20.52,55.56,20.99,5.22.09,27.79,0,49.7-14.51,5.01-3.31,14.7-9.88,22.23-22.23,4.1-6.72,11.56-18.97,8.03-33.03-.66-2.62-2.38-9.45-8.37-14.46-10.77-9.01-28.43-6.3-39.48,1.49-11.48,8.1-14.41,20.69-15.13,24.39,6.01-6.79,14.8-9.01,21.3-5.87,3.71,1.79,7.56,5.76,8.03,10.8.65,7.03-5.66,12.29-8.33,14.51-13.39,11.14-32.72,7.84-37.04,7.1-26.15-4.47-41.5-24.96-44.46-29.09-25.02-34.89-8.82-77.42-7.71-80.19,6.35-15.89,17.63-28.33,18.83-29.63,8.94-9.71,17.26-14.73,16.98-15.13Z"/>
      <g class="cls-8">
        <path class="cls-22" d="m72.7,65.67c-.44-.63-23.15,8.8-41.67,29.33-8.81,9.77-36.84,40.81-29.94,82.42,4.73,28.58,23.44,46.42,31.49,53.09,7.68,6.37,27.32,20.52,55.56,20.99,5.22.09,27.79,0,49.7-14.51,5.01-3.31,14.7-9.88,22.23-22.23,4.1-6.72,11.56-18.97,8.03-33.03-.66-2.62-2.38-9.45-8.37-14.46-10.77-9.01-28.43-6.3-39.48,1.49-11.48,8.1-14.41,20.69-15.13,24.39,6.01-6.79,14.8-9.01,21.3-5.87,3.71,1.79,7.56,5.76,8.03,10.8.65,7.03-5.66,12.29-8.33,14.51-13.39,11.14-32.72,7.84-37.04,7.1-26.15-4.47-41.5-24.96-44.46-29.09-25.02-34.89-8.82-77.42-7.71-80.19,6.35-15.89,17.63-28.33,18.83-29.63,8.94-9.71,17.26-14.73,16.98-15.13Z"/>
      </g>
    </g>
    <g>
      <path class="cls-10" d="m210.3,158.14c-6.55-15.99-17.05-29.15-29.91-38.84-5.88,6.07-11.96,10.48-16.81,14.05-2.21,1.62-4.37,3.08-6.63,4.5,9.93,9,18.06,20.3,23.47,33.52,16.95,41.4,1.78,87.95-33.91,112.01,4.4-1.08,8.78-2.5,13.1-4.27,47.4-19.41,70.1-73.57,50.69-120.97Z"/>
      <g class="cls-4">
        <path class="cls-14" d="m210.3,158.14c-6.55-15.99-17.05-29.15-29.91-38.84-5.88,6.07-11.96,10.48-16.81,14.05-2.21,1.62-4.37,3.08-6.63,4.5,9.93,9,18.06,20.3,23.47,33.52,16.95,41.4,1.78,87.95-33.91,112.01,4.4-1.08,8.78-2.5,13.1-4.27,47.4-19.41,70.1-73.57,50.69-120.97Z"/>
      </g>
    </g>
    <g>
      <g>
        <g>
          <g>
            <path class="cls-25" d="m129.59,89.27c5.09,0,10.08.42,14.95,1.21.11-.05.21-.1.31-.14,8.64-4.04,16.06-8.58,19.15-10.49,2.78-1.71,5.68-3.58,8.99-6.17,2.44-1.9,3.51-2.95,4.01-3.46,0,0,.01-.01.02-.02-14.08-8.62-30.63-13.61-48.35-13.61-51.22,0-92.75,41.52-92.75,92.75,0,6.49.67,12.82,1.94,18.93,6.64-44.7,45.18-79,91.73-79Z"/>
            <path class="cls-25" d="m129.59,89.27c5.09,0,10.08.42,14.95,1.21.11-.05.21-.1.31-.14,8.64-4.04,16.06-8.58,19.15-10.49,2.78-1.71,5.68-3.58,8.99-6.17,2.44-1.9,3.51-2.95,4.01-3.46,0,0,.01-.01.02-.02-14.08-8.62-30.63-13.61-48.35-13.61-51.22,0-92.75,41.52-92.75,92.75,0,6.49.67,12.82,1.94,18.93,6.64-44.7,45.18-79,91.73-79Z"/>
          </g>
          <g>
            <path class="cls-25" d="m198.39,88.22c-.71,2.58-2.42,8.13-5.91,14.63-1.39,2.59-2.89,4.97-4.45,7.2,16.25,13.21,27.95,31.79,32.36,53.05.67-4.49,1.02-9.07,1.02-13.74,0-23.43-8.7-44.81-23.03-61.13Z"/>
            <path class="cls-25" d="m198.39,88.22c-.71,2.58-2.42,8.13-5.91,14.63-1.39,2.59-2.89,4.97-4.45,7.2,16.25,13.21,27.95,31.79,32.36,53.05.67-4.49,1.02-9.07,1.02-13.74,0-23.43-8.7-44.81-23.03-61.13Z"/>
          </g>
        </g>
        <g>
          <g class="cls-19">
            <g>
              <path class="cls-25" d="m129.59,89.27c5.09,0,10.08.42,14.95,1.21.11-.05.21-.1.31-.14,8.64-4.04,16.06-8.58,19.15-10.49,2.78-1.71,5.68-3.58,8.99-6.17,2.44-1.9,3.51-2.95,4.01-3.46,0,0,.01-.01.02-.02-14.08-8.62-30.63-13.61-48.35-13.61-51.22,0-92.75,41.52-92.75,92.75,0,6.49.67,12.82,1.94,18.93,6.64-44.7,45.18-79,91.73-79Z"/>
              <path class="cls-25" d="m129.59,89.27c5.09,0,10.08.42,14.95,1.21.11-.05.21-.1.31-.14,8.64-4.04,16.06-8.58,19.15-10.49,2.78-1.71,5.68-3.58,8.99-6.17,2.44-1.9,3.51-2.95,4.01-3.46,0,0,.01-.01.02-.02-14.08-8.62-30.63-13.61-48.35-13.61-51.22,0-92.75,41.52-92.75,92.75,0,6.49.67,12.82,1.94,18.93,6.64-44.7,45.18-79,91.73-79Z"/>
            </g>
          </g>
          <g class="cls-9">
            <g>
              <path class="cls-25" d="m198.39,88.22c-.71,2.58-2.42,8.13-5.91,14.63-1.39,2.59-2.89,4.97-4.45,7.2,16.25,13.21,27.95,31.79,32.36,53.05.67-4.49,1.02-9.07,1.02-13.74,0-23.43-8.7-44.81-23.03-61.13Z"/>
              <path class="cls-25" d="m198.39,88.22c-.71,2.58-2.42,8.13-5.91,14.63-1.39,2.59-2.89,4.97-4.45,7.2,16.25,13.21,27.95,31.79,32.36,53.05.67-4.49,1.02-9.07,1.02-13.74,0-23.43-8.7-44.81-23.03-61.13Z"/>
            </g>
          </g>
        </g>
      </g>
      <g>
        <g>
          <path class="cls-14" d="m129.59,89.27c5.09,0,10.08.42,14.95,1.21.11-.05.21-.1.31-.14,8.64-4.04,16.06-8.58,19.15-10.49,2.78-1.71,5.68-3.58,8.99-6.17,2.44-1.9,3.51-2.95,4.01-3.46,0,0,.01-.01.02-.02-14.08-8.62-30.63-13.61-48.35-13.61-51.22,0-92.75,41.52-92.75,92.75,0,6.49.67,12.82,1.94,18.93,6.64-44.7,45.18-79,91.73-79Z"/>
          <path class="cls-14" d="m198.39,88.22c-.71,2.58-2.42,8.13-5.91,14.63-1.39,2.59-2.89,4.97-4.45,7.2,16.25,13.21,27.95,31.79,32.36,53.05.67-4.49,1.02-9.07,1.02-13.74,0-23.43-8.7-44.81-23.03-61.13Z"/>
        </g>
        <g>
          <g class="cls-21">
            <path class="cls-10" d="m129.59,89.27c5.09,0,10.08.42,14.95,1.21.11-.05.21-.1.31-.14,8.64-4.04,16.06-8.58,19.15-10.49,2.78-1.71,5.68-3.58,8.99-6.17,2.44-1.9,3.51-2.95,4.01-3.46,0,0,.01-.01.02-.02-14.08-8.62-30.63-13.61-48.35-13.61-51.22,0-92.75,41.52-92.75,92.75,0,6.49.67,12.82,1.94,18.93,6.64-44.7,45.18-79,91.73-79Z"/>
          </g>
          <g class="cls-7">
            <path class="cls-10" d="m198.39,88.22c-.71,2.58-2.42,8.13-5.91,14.63-1.39,2.59-2.89,4.97-4.45,7.2,16.25,13.21,27.95,31.79,32.36,53.05.67-4.49,1.02-9.07,1.02-13.74,0-23.43-8.7-44.81-23.03-61.13Z"/>
          </g>
        </g>
      </g>
    </g>
    <g>
      <path class="cls-12" d="m98.93,211.06c-3.18-1.73-12.28-7.21-14.82-17.29-3.79-15.09,10.15-28.5,13.89-32.1,6.38-6.14,9.25-5.72,30.87-16.67,15.09-7.64,22.63-11.46,30.56-17.29,9.56-7.02,19.83-14.56,26.86-28.09,7.68-14.79,7.73-29.52,6.79-38.59-1.22,1.71-3.09,4.23-5.56,7.1-10.15,11.81-22.13,20.06-44.14,30.56-17.13,8.17-18.79,7.43-48.77,20.99-12.57,5.69-19.87,9.25-27.16,16.98-4.14,4.38-12.37,13.09-14.2,26.86-.36,2.73-2.58,21.93,12.04,36.12,13.62,13.22,31.14,11.68,33.65,11.42Z"/>
      <g class="cls-15">
        <path class="cls-3" d="m98.93,211.06c-3.18-1.73-12.28-7.21-14.82-17.29-3.79-15.09,10.15-28.5,13.89-32.1,6.38-6.14,9.25-5.72,30.87-16.67,15.09-7.64,22.63-11.46,30.56-17.29,9.56-7.02,19.83-14.56,26.86-28.09,7.68-14.79,7.73-29.52,6.79-38.59-1.22,1.71-3.09,4.23-5.56,7.1-10.15,11.81-22.13,20.06-44.14,30.56-17.13,8.17-18.79,7.43-48.77,20.99-12.57,5.69-19.87,9.25-27.16,16.98-4.14,4.38-12.37,13.09-14.2,26.86-.36,2.73-2.58,21.93,12.04,36.12,13.62,13.22,31.14,11.68,33.65,11.42Z"/>
      </g>
    </g>
    <g>
      <g>
        <g>
          <g>
            <path class="cls-14" d="m182.35,14.78c1.86,11.69,3.73,23.39,5.59,35.08,3.07,1.37,6.14,2.74,9.2,4.11,1.46-3.08,2.91-6.15,4.37-9.23-6.39-9.99-12.77-19.97-19.16-29.96Z"/>
            <g class="cls-24">
              <rect class="cls-10" x="189.42" y="11.22" width="7.55" height="43.2" transform="translate(.86 70.34) rotate(-20.68)"/>
            </g>
          </g>
          <g>
            <path class="cls-14" d="m211.93,93.16c-1.86-11.69-3.73-23.39-5.59-35.08-3.07-1.37-6.14-2.74-9.2-4.11-1.46,3.08-2.91,6.15-4.37,9.23,6.39,9.99,12.77,19.97,19.16,29.96Z"/>
            <g class="cls-1">
              <rect class="cls-10" x="197.31" y="53.51" width="7.55" height="43.2" transform="translate(-13.57 75.85) rotate(-20.68)"/>
            </g>
          </g>
        </g>
        <g>
          <g>
            <path class="cls-14" d="m157.97,68.75c11.69-1.86,23.39-3.73,35.08-5.59,1.37-3.07,2.74-6.14,4.11-9.2-3.08-1.46-6.15-2.91-9.23-4.37-9.99,6.39-19.97,12.77-29.96,19.16Z"/>
            <g class="cls-13">
              <rect class="cls-10" x="154.41" y="54.13" width="43.2" height="7.55" transform="translate(-9.11 65.88) rotate(-20.68)"/>
            </g>
          </g>
          <g>
            <path class="cls-14" d="m236.34,39.17c-11.69,1.86-23.39,3.73-35.08,5.59-1.37,3.07-2.74,6.14-4.11,9.2,3.08,1.46,6.15,2.91,9.23,4.37,9.99-6.39,19.97-12.77,29.96-19.16Z"/>
            <g class="cls-5">
              <rect class="cls-10" x="196.7" y="46.24" width="43.2" height="7.55" transform="translate(-3.6 80.31) rotate(-20.68)"/>
            </g>
          </g>
        </g>
      </g>
      <g>
        <g>
          <path class="cls-14" d="m222.28,0c-10.27,13.75-20.55,27.5-30.82,41.25,1.68,4.57,3.35,9.14,5.03,13.72,4.67-1.59,9.34-3.19,14.01-4.78,3.93-16.73,7.86-33.46,11.78-50.19Z"/>
          <g class="cls-20">
            <rect class="cls-10" x="183.17" y="24.03" width="62.62" height="10.95" transform="translate(96.66 211.14) rotate(-64.86)"/>
            <polygon class="cls-17" points="186.28 40.5 218.59 -2.75 226.76 1.05 214.39 53.72 193.71 60.78 186.28 40.5"/>
          </g>
        </g>
        <g>
          <g>
            <path class="cls-14" d="m141.53,29.18c13.75,10.27,27.5,20.55,41.25,30.82,4.57-1.68,9.14-3.35,13.72-5.03-1.59-4.67-3.19-9.34-4.78-14.01-16.73-3.93-33.46-7.86-50.19-11.78Z"/>
            <g class="cls-6">
              <rect class="cls-10" x="165.56" y="5.67" width="10.95" height="62.62" transform="translate(64.91 176.11) rotate(-64.86)"/>
            </g>
          </g>
          <g>
            <path class="cls-14" d="m251.47,80.77c-13.75-10.27-27.5-20.55-41.25-30.82-4.57,1.68-9.14,3.35-13.72,5.03,1.59,4.67,3.19,9.34,4.78,14.01,16.73,3.93,33.46,7.86,50.19,11.78Z"/>
            <g class="cls-2">
              <rect class="cls-10" x="216.49" y="41.66" width="10.95" height="62.62" transform="translate(61.61 242.91) rotate(-64.86)"/>
            </g>
          </g>
        </g>
      </g>
    </g>
  </g>
</svg>